<mxfile host="app.diagrams.net" modified="2021-03-30T18:33:24.025Z" agent="5.0 (Windows)" etag="j8dkklsoN5aWYQQwckaH" version="14.4.9" type="github">
  <diagram id="X-aBT6iO_DcQqcGjDoYc" name="Page-1">
    <mxGraphModel dx="1490" dy="609" grid="1" gridSize="10" guides="1" tooltips="1" connect="1" arrows="1" fold="1" page="1" pageScale="1" pageWidth="1654" pageHeight="2336" math="0" shadow="0">
      <root>
        <mxCell id="0" />
        <mxCell id="1" parent="0" />
        <mxCell id="4kJFu-Nbu05ohsKrN8TI-42" value="" style="rounded=0;whiteSpace=wrap;html=1;fillColor=#1e1e1e;" vertex="1" parent="1">
          <mxGeometry x="560" y="1170" width="860" height="212.5" as="geometry" />
        </mxCell>
        <mxCell id="4kJFu-Nbu05ohsKrN8TI-41" value="" style="rounded=0;whiteSpace=wrap;html=1;fillColor=#1e1e1e;" vertex="1" parent="1">
          <mxGeometry x="560" y="980" width="860" height="170" as="geometry" />
        </mxCell>
        <mxCell id="4kJFu-Nbu05ohsKrN8TI-25" value="" style="rounded=0;whiteSpace=wrap;html=1;fillColor=#1e1e1e;" vertex="1" parent="1">
          <mxGeometry x="260" y="1970" width="1220" height="650" as="geometry" />
        </mxCell>
        <mxCell id="4kJFu-Nbu05ohsKrN8TI-20" value="" style="rounded=0;whiteSpace=wrap;html=1;fillColor=#ffe6cc;strokeColor=#d79b00;" vertex="1" parent="1">
          <mxGeometry x="1060" y="370" width="300" height="125" as="geometry" />
        </mxCell>
        <mxCell id="4kJFu-Nbu05ohsKrN8TI-12" value="" style="rounded=0;whiteSpace=wrap;html=1;fillColor=#ffe6cc;strokeColor=#d79b00;" vertex="1" parent="1">
          <mxGeometry x="720" y="510" width="300" height="125" as="geometry" />
        </mxCell>
        <mxCell id="4kJFu-Nbu05ohsKrN8TI-1" value="" style="rounded=0;whiteSpace=wrap;html=1;fillColor=#ffe6cc;strokeColor=#d79b00;" vertex="1" parent="1">
          <mxGeometry x="330" y="370" width="300" height="410" as="geometry" />
        </mxCell>
        <mxCell id="4kJFu-Nbu05ohsKrN8TI-2" value="&lt;font style=&quot;font-size: 17px&quot;&gt;class Dog{};&lt;/font&gt;" style="rounded=0;whiteSpace=wrap;html=1;fillColor=#dae8fc;strokeColor=#6c8ebf;" vertex="1" parent="1">
          <mxGeometry x="360" y="390" width="220" height="60" as="geometry" />
        </mxCell>
        <mxCell id="4kJFu-Nbu05ohsKrN8TI-3" value="&lt;font style=&quot;font-size: 17px&quot;&gt;double add(double a, double b)&lt;/font&gt;" style="rounded=0;whiteSpace=wrap;html=1;fillColor=#fff2cc;strokeColor=#d6b656;" vertex="1" parent="1">
          <mxGeometry x="350" y="470" width="240" height="60" as="geometry" />
        </mxCell>
        <mxCell id="4kJFu-Nbu05ohsKrN8TI-4" value="..." style="rounded=0;whiteSpace=wrap;html=1;fillColor=#d5e8d4;strokeColor=#82b366;" vertex="1" parent="1">
          <mxGeometry x="360" y="545" width="220" height="60" as="geometry" />
        </mxCell>
        <mxCell id="4kJFu-Nbu05ohsKrN8TI-5" value="&lt;font style=&quot;font-size: 21px&quot;&gt;void main(){}&lt;/font&gt;" style="rounded=0;whiteSpace=wrap;html=1;fillColor=#f8cecc;strokeColor=#b85450;" vertex="1" parent="1">
          <mxGeometry x="360" y="630" width="220" height="130" as="geometry" />
        </mxCell>
        <mxCell id="4kJFu-Nbu05ohsKrN8TI-6" value="" style="rounded=0;whiteSpace=wrap;html=1;fillColor=#ffe6cc;strokeColor=#d79b00;" vertex="1" parent="1">
          <mxGeometry x="890" y="660" width="300" height="190" as="geometry" />
        </mxCell>
        <mxCell id="4kJFu-Nbu05ohsKrN8TI-7" value="&lt;font style=&quot;font-size: 17px&quot;&gt;class Dog{};&lt;/font&gt;" style="rounded=0;whiteSpace=wrap;html=1;fillColor=#dae8fc;strokeColor=#6c8ebf;" vertex="1" parent="1">
          <mxGeometry x="760" y="560" width="220" height="60" as="geometry" />
        </mxCell>
        <mxCell id="4kJFu-Nbu05ohsKrN8TI-10" value="&lt;font style=&quot;font-size: 21px&quot;&gt;void main(){}&lt;/font&gt;" style="rounded=0;whiteSpace=wrap;html=1;fillColor=#f8cecc;strokeColor=#b85450;" vertex="1" parent="1">
          <mxGeometry x="930" y="700" width="220" height="130" as="geometry" />
        </mxCell>
        <mxCell id="4kJFu-Nbu05ohsKrN8TI-11" value="main.cpp" style="text;html=1;strokeColor=none;fillColor=none;align=center;verticalAlign=middle;whiteSpace=wrap;rounded=0;" vertex="1" parent="1">
          <mxGeometry x="1000" y="660" width="40" height="20" as="geometry" />
        </mxCell>
        <mxCell id="4kJFu-Nbu05ohsKrN8TI-13" value="dog.cpp" style="text;html=1;strokeColor=none;fillColor=none;align=center;verticalAlign=middle;whiteSpace=wrap;rounded=0;" vertex="1" parent="1">
          <mxGeometry x="850" y="520" width="40" height="20" as="geometry" />
        </mxCell>
        <mxCell id="4kJFu-Nbu05ohsKrN8TI-14" value="" style="rounded=0;whiteSpace=wrap;html=1;fillColor=#ffe6cc;strokeColor=#d79b00;" vertex="1" parent="1">
          <mxGeometry x="720" y="370" width="300" height="125" as="geometry" />
        </mxCell>
        <mxCell id="4kJFu-Nbu05ohsKrN8TI-8" value="&lt;font style=&quot;font-size: 17px&quot;&gt;double add(double a, double b)&lt;/font&gt;" style="rounded=0;whiteSpace=wrap;html=1;fillColor=#fff2cc;strokeColor=#d6b656;" vertex="1" parent="1">
          <mxGeometry x="1090" y="420" width="240" height="60" as="geometry" />
        </mxCell>
        <mxCell id="4kJFu-Nbu05ohsKrN8TI-15" value="&lt;font style=&quot;font-size: 17px&quot;&gt;class Dog{};&lt;/font&gt;" style="rounded=0;whiteSpace=wrap;html=1;fillColor=#dae8fc;strokeColor=#6c8ebf;" vertex="1" parent="1">
          <mxGeometry x="760" y="420" width="220" height="60" as="geometry" />
        </mxCell>
        <mxCell id="4kJFu-Nbu05ohsKrN8TI-16" value="dog.h" style="text;html=1;strokeColor=none;fillColor=none;align=center;verticalAlign=middle;whiteSpace=wrap;rounded=0;" vertex="1" parent="1">
          <mxGeometry x="850" y="380" width="40" height="20" as="geometry" />
        </mxCell>
        <mxCell id="4kJFu-Nbu05ohsKrN8TI-17" value="" style="rounded=0;whiteSpace=wrap;html=1;fillColor=#ffe6cc;strokeColor=#d79b00;" vertex="1" parent="1">
          <mxGeometry x="1060" y="510" width="300" height="125" as="geometry" />
        </mxCell>
        <mxCell id="4kJFu-Nbu05ohsKrN8TI-19" value="operations.cpp" style="text;html=1;strokeColor=none;fillColor=none;align=center;verticalAlign=middle;whiteSpace=wrap;rounded=0;" vertex="1" parent="1">
          <mxGeometry x="1190" y="520" width="40" height="20" as="geometry" />
        </mxCell>
        <mxCell id="4kJFu-Nbu05ohsKrN8TI-22" value="operations.h" style="text;html=1;strokeColor=none;fillColor=none;align=center;verticalAlign=middle;whiteSpace=wrap;rounded=0;" vertex="1" parent="1">
          <mxGeometry x="1190" y="380" width="40" height="20" as="geometry" />
        </mxCell>
        <mxCell id="4kJFu-Nbu05ohsKrN8TI-23" value="&lt;font style=&quot;font-size: 17px&quot;&gt;double add(double a, double b)&lt;/font&gt;" style="rounded=0;whiteSpace=wrap;html=1;fillColor=#fff2cc;strokeColor=#d6b656;" vertex="1" parent="1">
          <mxGeometry x="1090" y="560" width="240" height="60" as="geometry" />
        </mxCell>
        <mxCell id="4kJFu-Nbu05ohsKrN8TI-24" value="&lt;div style=&quot;color: rgb(212, 212, 212); background-color: rgb(30, 30, 30); font-family: &amp;quot;consolas&amp;quot;, &amp;quot;courier new&amp;quot;, monospace; font-weight: normal; font-size: 24px; line-height: 32px;&quot;&gt;&lt;div&gt;&lt;span style=&quot;color: #569cd6&quot;&gt;cmake_minimum_required&lt;/span&gt;&lt;span style=&quot;color: #d4d4d4&quot;&gt;(VERSION&amp;nbsp;3.5)&lt;/span&gt;&lt;/div&gt;&lt;div&gt;&lt;span style=&quot;color: #569cd6&quot;&gt;project&lt;/span&gt;&lt;span style=&quot;color: #d4d4d4&quot;&gt;(HelloApp&lt;/span&gt;&lt;/div&gt;&lt;div&gt;&lt;span style=&quot;color: #d4d4d4&quot;&gt;&amp;nbsp;&amp;nbsp;&amp;nbsp;&amp;nbsp;&amp;nbsp;&amp;nbsp;&amp;nbsp;&amp;nbsp;VERSION&amp;nbsp;1.0.0&lt;/span&gt;&lt;/div&gt;&lt;div&gt;&lt;span style=&quot;color: #d4d4d4&quot;&gt;&amp;nbsp;&amp;nbsp;&amp;nbsp;&amp;nbsp;&amp;nbsp;&amp;nbsp;&amp;nbsp;&amp;nbsp;DESCRIPTION&amp;nbsp;&lt;/span&gt;&lt;span style=&quot;color: #ce9178&quot;&gt;&quot;The&amp;nbsp;leading&amp;nbsp;Hello&amp;nbsp;World&amp;nbsp;App&quot;&lt;/span&gt;&lt;/div&gt;&lt;div&gt;&lt;span style=&quot;color: #d4d4d4&quot;&gt;&amp;nbsp;&amp;nbsp;&amp;nbsp;&amp;nbsp;&amp;nbsp;&amp;nbsp;&amp;nbsp;&amp;nbsp;LANGUAGES&amp;nbsp;CXX)&amp;nbsp;&amp;nbsp;&lt;/span&gt;&lt;/div&gt;&lt;br&gt;&lt;div&gt;&lt;span style=&quot;color: #6a9955&quot;&gt;#Not&amp;nbsp;recommended&lt;/span&gt;&lt;/div&gt;&lt;div&gt;&lt;span style=&quot;color: #6a9955&quot;&gt;#Some&amp;nbsp;reading&amp;nbsp;:&amp;nbsp;https://stackoverflow.com/a/1060061&lt;/span&gt;&lt;/div&gt;&lt;div&gt;&lt;span style=&quot;color: #6a9955&quot;&gt;#file(GLOB_RECURSE&amp;nbsp;SRC_FILES&amp;nbsp;src/*.cpp)&lt;/span&gt;&lt;/div&gt;&lt;div&gt;&lt;span style=&quot;color: #6a9955&quot;&gt;#add_executable(HelloBinary&amp;nbsp;main.cpp&amp;nbsp;${SRC_FILES})&lt;/span&gt;&lt;/div&gt;&lt;br&gt;&lt;div&gt;&lt;span style=&quot;color: #6a9955&quot;&gt;#List&amp;nbsp;your&amp;nbsp;sources&lt;/span&gt;&lt;/div&gt;&lt;div&gt;&lt;span style=&quot;color: #569cd6&quot;&gt;add_executable&lt;/span&gt;&lt;span style=&quot;color: #d4d4d4&quot;&gt;(HelloBinary&amp;nbsp;main.cpp&lt;/span&gt;&lt;/div&gt;&lt;div&gt;&lt;span style=&quot;color: #d4d4d4&quot;&gt;&amp;nbsp;&amp;nbsp;&amp;nbsp;&amp;nbsp;&amp;nbsp;&amp;nbsp;&amp;nbsp;&amp;nbsp;&amp;nbsp;&amp;nbsp;&amp;nbsp;&amp;nbsp;&amp;nbsp;&amp;nbsp;&amp;nbsp;&amp;nbsp;src/dog.cpp&lt;/span&gt;&lt;/div&gt;&lt;div&gt;&lt;span style=&quot;color: #d4d4d4&quot;&gt;&amp;nbsp;&amp;nbsp;&amp;nbsp;&amp;nbsp;&amp;nbsp;&amp;nbsp;&amp;nbsp;&amp;nbsp;&amp;nbsp;&amp;nbsp;&amp;nbsp;&amp;nbsp;&amp;nbsp;&amp;nbsp;&amp;nbsp;&amp;nbsp;src/operations.cpp)&amp;nbsp;&amp;nbsp;&lt;/span&gt;&lt;/div&gt;&lt;br&gt;&lt;div&gt;&lt;span style=&quot;color: #569cd6&quot;&gt;target_compile_features&lt;/span&gt;&lt;span style=&quot;color: #d4d4d4&quot;&gt;(HelloBinary&amp;nbsp;PRIVATE&amp;nbsp;cxx_std_20)&lt;/span&gt;&lt;/div&gt;&lt;div&gt;&lt;span style=&quot;color: #569cd6&quot;&gt;target_include_directories&lt;/span&gt;&lt;span style=&quot;color: #d4d4d4&quot;&gt;(HelloBinary&amp;nbsp;PRIVATE&amp;nbsp;&lt;/span&gt;&lt;span style=&quot;color: #569cd6&quot;&gt;${CMAKE_CURRENT_SOURCE_DIR}&lt;/span&gt;&lt;span style=&quot;color: #d4d4d4&quot;&gt;/include)&lt;/span&gt;&lt;/div&gt;&lt;/div&gt;" style="text;whiteSpace=wrap;html=1;" vertex="1" parent="1">
          <mxGeometry x="310" y="2000" width="280" height="498" as="geometry" />
        </mxCell>
        <mxCell id="4kJFu-Nbu05ohsKrN8TI-26" value="" style="rounded=0;whiteSpace=wrap;html=1;fillColor=#ffe6cc;strokeColor=#d79b00;" vertex="1" parent="1">
          <mxGeometry x="1100" y="1010" width="300" height="125" as="geometry" />
        </mxCell>
        <mxCell id="4kJFu-Nbu05ohsKrN8TI-27" value="" style="rounded=0;whiteSpace=wrap;html=1;fillColor=#ffe6cc;strokeColor=#d79b00;" vertex="1" parent="1">
          <mxGeometry x="760" y="1210" width="300" height="125" as="geometry" />
        </mxCell>
        <mxCell id="4kJFu-Nbu05ohsKrN8TI-28" value="" style="rounded=0;whiteSpace=wrap;html=1;fillColor=#ffe6cc;strokeColor=#d79b00;" vertex="1" parent="1">
          <mxGeometry x="940" y="1440" width="300" height="190" as="geometry" />
        </mxCell>
        <mxCell id="4kJFu-Nbu05ohsKrN8TI-29" value="&lt;font style=&quot;font-size: 17px&quot;&gt;class Dog{};&lt;/font&gt;" style="rounded=0;whiteSpace=wrap;html=1;fillColor=#dae8fc;strokeColor=#6c8ebf;" vertex="1" parent="1">
          <mxGeometry x="800" y="1260" width="220" height="60" as="geometry" />
        </mxCell>
        <mxCell id="4kJFu-Nbu05ohsKrN8TI-30" value="&lt;font style=&quot;font-size: 21px&quot;&gt;void main(){}&lt;/font&gt;" style="rounded=0;whiteSpace=wrap;html=1;fillColor=#f8cecc;strokeColor=#b85450;" vertex="1" parent="1">
          <mxGeometry x="980" y="1480" width="220" height="130" as="geometry" />
        </mxCell>
        <mxCell id="4kJFu-Nbu05ohsKrN8TI-31" value="main.cpp" style="text;html=1;strokeColor=none;fillColor=none;align=center;verticalAlign=middle;whiteSpace=wrap;rounded=0;" vertex="1" parent="1">
          <mxGeometry x="1050" y="1440" width="40" height="20" as="geometry" />
        </mxCell>
        <mxCell id="4kJFu-Nbu05ohsKrN8TI-32" value="dog.cpp" style="text;html=1;strokeColor=none;fillColor=none;align=center;verticalAlign=middle;whiteSpace=wrap;rounded=0;" vertex="1" parent="1">
          <mxGeometry x="890" y="1220" width="40" height="20" as="geometry" />
        </mxCell>
        <mxCell id="4kJFu-Nbu05ohsKrN8TI-33" value="" style="rounded=0;whiteSpace=wrap;html=1;fillColor=#ffe6cc;strokeColor=#d79b00;" vertex="1" parent="1">
          <mxGeometry x="760" y="1010" width="300" height="125" as="geometry" />
        </mxCell>
        <mxCell id="4kJFu-Nbu05ohsKrN8TI-34" value="&lt;font style=&quot;font-size: 17px&quot;&gt;double add(double a, double b)&lt;/font&gt;" style="rounded=0;whiteSpace=wrap;html=1;fillColor=#fff2cc;strokeColor=#d6b656;" vertex="1" parent="1">
          <mxGeometry x="1130" y="1060" width="240" height="60" as="geometry" />
        </mxCell>
        <mxCell id="4kJFu-Nbu05ohsKrN8TI-35" value="&lt;font style=&quot;font-size: 17px&quot;&gt;class Dog{};&lt;/font&gt;" style="rounded=0;whiteSpace=wrap;html=1;fillColor=#dae8fc;strokeColor=#6c8ebf;" vertex="1" parent="1">
          <mxGeometry x="800" y="1060" width="220" height="60" as="geometry" />
        </mxCell>
        <mxCell id="4kJFu-Nbu05ohsKrN8TI-36" value="dog.h" style="text;html=1;strokeColor=none;fillColor=none;align=center;verticalAlign=middle;whiteSpace=wrap;rounded=0;" vertex="1" parent="1">
          <mxGeometry x="890" y="1020" width="40" height="20" as="geometry" />
        </mxCell>
        <mxCell id="4kJFu-Nbu05ohsKrN8TI-37" value="" style="rounded=0;whiteSpace=wrap;html=1;fillColor=#ffe6cc;strokeColor=#d79b00;" vertex="1" parent="1">
          <mxGeometry x="1100" y="1210" width="300" height="125" as="geometry" />
        </mxCell>
        <mxCell id="4kJFu-Nbu05ohsKrN8TI-38" value="operations.cpp" style="text;html=1;strokeColor=none;fillColor=none;align=center;verticalAlign=middle;whiteSpace=wrap;rounded=0;" vertex="1" parent="1">
          <mxGeometry x="1230" y="1220" width="40" height="20" as="geometry" />
        </mxCell>
        <mxCell id="4kJFu-Nbu05ohsKrN8TI-39" value="operations.h" style="text;html=1;strokeColor=none;fillColor=none;align=center;verticalAlign=middle;whiteSpace=wrap;rounded=0;" vertex="1" parent="1">
          <mxGeometry x="1230" y="1020" width="40" height="20" as="geometry" />
        </mxCell>
        <mxCell id="4kJFu-Nbu05ohsKrN8TI-40" value="&lt;font style=&quot;font-size: 17px&quot;&gt;double add(double a, double b)&lt;/font&gt;" style="rounded=0;whiteSpace=wrap;html=1;fillColor=#fff2cc;strokeColor=#d6b656;" vertex="1" parent="1">
          <mxGeometry x="1130" y="1260" width="240" height="60" as="geometry" />
        </mxCell>
        <mxCell id="4kJFu-Nbu05ohsKrN8TI-43" value="&lt;font style=&quot;font-size: 26px&quot; color=&quot;#E1D5E7&quot;&gt;/include&lt;/font&gt;" style="text;html=1;strokeColor=none;fillColor=none;align=center;verticalAlign=middle;whiteSpace=wrap;rounded=0;" vertex="1" parent="1">
          <mxGeometry x="650" y="1062.5" width="40" height="20" as="geometry" />
        </mxCell>
        <mxCell id="4kJFu-Nbu05ohsKrN8TI-44" value="&lt;div style=&quot;font-size: 26px&quot;&gt;&lt;font style=&quot;font-size: 26px&quot; color=&quot;#CCCCCC&quot;&gt;/src&lt;/font&gt;&lt;/div&gt;" style="text;html=1;strokeColor=none;fillColor=none;align=center;verticalAlign=middle;whiteSpace=wrap;rounded=0;" vertex="1" parent="1">
          <mxGeometry x="640" y="1262.5" width="40" height="20" as="geometry" />
        </mxCell>
      </root>
    </mxGraphModel>
  </diagram>
</mxfile>
